<?xml version="1.0" encoding="UTF-8" standalone="no"?>
<svg id="svg8" version="1.1" viewBox="0 0 264.58333 264.58334" height="1000" width="1000" sodipodi:docname="logo.svg" inkscape:version="1.1 (c68e22c387, 2021-05-23)" xmlns:inkscape="http://www.inkscape.org/namespaces/inkscape" xmlns:sodipodi="http://sodipodi.sourceforge.net/DTD/sodipodi-0.dtd" xmlns:xlink="http://www.w3.org/1999/xlink" xmlns="http://www.w3.org/2000/svg" xmlns:svg="http://www.w3.org/2000/svg" xmlns:rdf="http://www.w3.org/1999/02/22-rdf-syntax-ns#" xmlns:cc="http://creativecommons.org/ns#" xmlns:dc="http://purl.org/dc/elements/1.1/">
  <sodipodi:namedview id="namedview11" pagecolor="#ffffff" bordercolor="#666666" borderopacity="1.0" inkscape:pageshadow="2" inkscape:pageopacity="0.0" inkscape:pagecheckerboard="0" showgrid="false" inkscape:zoom="0.833" inkscape:cx="381.7527" inkscape:cy="516.20648" inkscape:window-width="1920" inkscape:window-height="1011" inkscape:window-x="0" inkscape:window-y="32" inkscape:window-maximized="1" inkscape:current-layer="svg8"/>
  <defs id="defs2">
    <linearGradient id="linearGradient992">
      <stop id="stop988" offset="0" style="stop-color:#c04080;stop-opacity:1"/>
      <stop id="stop990" offset="1" style="stop-color:#602080;stop-opacity:1"/>
    </linearGradient>
    <linearGradient gradientUnits="userSpaceOnUse" y2="28.568373" x2="971.54578" y1="971.41162" x1="28.726213" id="linearGradient994" xlink:href="#linearGradient992"/>
    <linearGradient inkscape:collect="always" xlink:href="#linearGradient992" id="linearGradient1371" x1="7.0564442" y1="257.17047" x2="256.49338" y2="7.6754761" gradientUnits="userSpaceOnUse" gradientTransform="translate(3.9999999e-6,0.0129191)"/>
  </defs>
  <metadata id="metadata5">
    <rdf:RDF>
      <cc:Work rdf:about="">
        <dc:format>image/svg+xml</dc:format>
        <dc:type rdf:resource="http://purl.org/dc/dcmitype/StillImage"/>
        <dc:title/>
      </cc:Work>
    </rdf:RDF>
  </metadata>
  <path style="fill:url(#linearGradient1371);fill-opacity:1;stroke-width:0.0516764" d="m 119.14,243.87654 -13.17748,-13.17496 -17.977306,4.83272 c -9.88752,2.65799 -17.994679,4.8137 -18.015903,4.79045 -0.02122,-0.0232 -2.206253,-8.11153 -4.855621,-17.97398 -2.649363,-9.86245 -4.821473,-17.93642 -4.82691,-17.94216 -0.0054,-0.006 -8.078334,-2.16512 -17.939774,-4.79862 -9.861441,-2.63348 -17.948813,-4.80571 -17.971938,-4.82717 -0.02313,-0.0215 2.122337,-8.14052 4.767694,-18.04237 L 33.952501,158.73708 20.735711,145.55093 7.5189205,132.36478 20.685635,119.19377 33.852349,106.02276 29.014751,88.021995 C 26.354072,78.12157 24.196262,70.003626 24.219618,69.982119 c 0.02336,-0.02151 8.123369,-2.208424 18.000027,-4.859802 9.876658,-2.651378 17.980815,-4.848361 18.009237,-4.882188 0.02842,-0.03382 2.202274,-8.113541 4.830785,-17.954929 2.628512,-9.841386 4.802798,-17.902022 4.831747,-17.912525 0.02895,-0.0105 8.13354,2.140681 18.010198,4.780407 L 105.85917,33.952585 119.04543,20.74221 132.2317,7.5318359 145.40041,20.693422 158.56913,33.85501 176.52669,29.026754 c 9.87666,-2.655539 17.98081,-4.820732 18.00923,-4.811539 0.0284,0.0092 2.22859,8.117707 4.88926,18.018917 l 4.8376,18.002199 17.99917,4.808642 c 9.89956,2.644753 18.00663,4.831896 18.01574,4.860318 0.009,0.02842 -2.14503,8.142093 -4.78696,18.030378 l -4.8035,17.978701 13.18859,13.16541 13.18859,13.16541 -13.1721,13.176 c -13.15223,13.15613 -13.17205,13.17626 -13.13762,13.34839 0.019,0.0948 2.18681,8.18097 4.81744,17.96924 2.63063,9.78827 4.76373,17.81468 4.74021,17.83647 -0.0235,0.0218 -8.09792,2.20353 -17.94312,4.84831 -9.84519,2.64478 -17.91687,4.82745 -17.93707,4.85039 -0.0202,0.0229 -2.19369,8.12261 -4.82999,17.99927 -2.63631,9.87666 -4.81105,17.9767 -4.83277,18.0001 -0.0217,0.0234 -8.15006,-2.12413 -18.06297,-4.77227 l -18.02347,-4.81483 -13.14827,13.18262 c -7.23155,7.25044 -13.16378,13.18262 -13.18274,13.18262 -0.019,0 -5.96433,-5.92873 -13.21194,-13.17496 z m 33.67886,-14.73622 c -0.0538,-0.0494 -20.42896,-5.48426 -20.55303,-5.48237 -0.0816,0.001 -19.12549,5.10044 -20.22726,5.41605 l -0.28015,0.0803 10.27949,10.27959 10.2795,10.27959 10.26947,-10.26937 c 5.64821,-5.64816 10.2526,-10.28485 10.23198,-10.30375 z m -65.123953,1.09076 c 7.631317,-2.04879 13.902513,-3.73426 13.935993,-3.7455 0.0335,-0.0112 -3.322056,-3.3995 -7.456751,-7.52949 l -7.517629,-7.50905 -10.268262,-2.74505 c -5.647542,-1.50978 -10.273161,-2.74124 -10.279146,-2.73658 -0.01,0.008 7.452068,27.8225 7.505692,27.97737 0.01301,0.0376 0.06432,0.0559 0.114293,0.0408 0.04988,-0.0151 6.334492,-1.70368 13.96581,-3.75246 z m 103.475063,3.44975 c 0.37099,-1.29269 7.42242,-27.80637 7.40095,-27.82784 -0.0155,-0.0155 -4.64298,1.21196 -10.28333,2.72767 l -10.25519,2.75581 -7.55116,7.55129 -7.55116,7.55129 14.02009,3.7509 c 7.71104,2.063 14.04751,3.75344 14.08101,3.75654 0.0335,0.003 0.096,-0.11644 0.13879,-0.26566 z m -76.25888,-10.76656 c 4.0122,-1.07732 7.29084,-1.96287 7.28586,-1.96788 -0.006,-0.006 -18.00433,-4.81594 -25.329476,-6.76863 -0.0568,-0.0152 2.3151,2.3933 5.270996,5.35212 2.95589,2.95882 5.3976,5.37145 5.42602,5.36141 0.0284,-0.01 3.33439,-0.8997 7.3466,-1.97702 z m 53.01771,-8.84272 c -0.0245,-0.0245 -25.50783,6.82921 -25.50821,6.86043 0,0.0155 3.30759,0.91336 7.35063,1.99529 l 7.35097,1.96712 5.411,-5.40372 c 2.97605,-2.97205 5.40407,-5.41066 5.39561,-5.41912 z m -14.01111,-1.63769 21.44515,-5.76468 13.61731,-13.63074 c 7.48952,-7.49691 14.56388,-14.58418 15.7208,-15.7495 l 2.1035,-2.11875 5.71256,-21.38712 c 3.14191,-11.76292 5.7134,-21.41349 5.71442,-21.44572 0.001,-0.0322 -2.59766,-9.74056 -5.77484,-21.57406 l -5.7767,-21.515468 -15.71451,-15.69157 -15.7145,-15.69157 -21.56491,-5.757736 -21.5649,-5.757735 -0.34104,0.09045 c -0.18756,0.04974 -9.81719,2.63621 -21.39917,5.747698 l -21.058146,5.657257 -12.47019,12.464056 c -6.858605,6.85523 -13.936193,13.946105 -15.727976,15.757499 l -3.257791,3.293437 -5.759638,21.559812 -5.759633,21.55981 5.75214,21.41234 5.75214,21.41235 15.761312,15.74615 15.761313,15.74615 21.394039,5.71982 c 12.9057,3.45041 21.45556,5.71242 21.54907,5.70116 0.0853,-0.0103 9.80535,-2.61276 21.60019,-5.78334 z M 99.528814,174.68595 v -0.61351 l 1.304826,-0.0264 c 1.05338,-0.0214 1.41238,-0.048 1.86292,-0.1382 1.98615,-0.3977 3.68702,-1.55296 4.93687,-3.35319 0.55911,-0.80533 0.97196,-1.78059 1.20717,-2.85166 l 0.11916,-0.5426 v -34.80408 c 0,-33.468799 -0.004,-34.821848 -0.0942,-35.267289 -0.35008,-1.721983 -1.15155,-3.147906 -2.46352,-4.382947 -0.80953,-0.762062 -1.77522,-1.348088 -2.77099,-1.681567 -0.83974,-0.281228 -1.21721,-0.332258 -2.70701,-0.365946 l -1.369426,-0.03097 v -0.620117 -0.620117 l 18.668116,-0.01299 18.66811,-0.01299 v 0.640596 0.640602 l -1.40818,0.02545 c -1.19326,0.02156 -1.47917,0.04216 -1.87328,0.134953 -0.70735,0.166548 -1.08309,0.299832 -1.70532,0.604914 -0.73415,0.359962 -1.41378,0.850795 -2.03767,1.471636 -1.25647,1.250337 -1.94727,2.545674 -2.31281,4.33681 -0.0845,0.41396 -0.0905,2.522818 -0.10498,36.629662 l -0.0153,36.19043 8.79832,-0.0222 c 6.18268,-0.0156 8.99802,-0.0403 9.4701,-0.0832 3.74918,-0.3405 6.64146,-1.19227 9.45679,-2.78498 0.70111,-0.39665 2.13898,-1.37306 2.79053,-1.89495 2.56207,-2.05228 4.67385,-4.6281 6.54793,-7.98676 1.03821,-1.86065 1.98962,-4.02409 2.75549,-6.26576 l 0.29572,-0.86558 h 0.63134 0.63134 l -0.12473,0.55552 c -0.0686,0.30553 -1.33825,5.96217 -2.82144,12.57029 l -2.69672,12.01477 -31.81958,0.013 -31.819556,0.013 z m -29.582638,20.04589 c -5.14316,-5.14321 -9.356685,-9.34582 -9.363393,-9.33911 -0.02175,0.0217 3.934959,14.70244 3.972765,14.74024 0.03356,0.0336 14.572243,3.9399 14.69021,3.94705 0.02839,0.002 -4.156418,-4.20496 -9.299582,-9.34818 z m 122.903364,7.23603 c 4.01792,-1.07908 7.31094,-1.96894 7.31782,-1.97748 0.007,-0.009 0.89052,-3.30601 1.96364,-7.32773 1.07311,-4.02172 1.96144,-7.32966 1.97406,-7.35097 0.0126,-0.0213 0.0157,-0.0388 0.007,-0.0388 -0.009,0 -4.22505,4.21001 -9.36941,9.35557 -5.14436,5.14557 -9.3185,9.34337 -9.27586,9.32845 0.0426,-0.0149 3.3649,-0.91001 7.38282,-1.98908 z M 55.94628,188.22572 53.189384,177.97518 45.702053,170.48743 c -5.977694,-5.97802 -7.494904,-7.46944 -7.52489,-7.39696 -0.08535,0.20632 -7.481126,27.98768 -7.457092,28.01172 0.07291,0.0729 27.959939,7.482 27.970812,7.43134 0.0068,-0.0315 -1.228313,-4.67001 -2.744603,-10.30781 z m 164.29868,6.38118 c 11.34471,-3.0508 13.71881,-3.70425 13.71268,-3.77428 -0.004,-0.0466 -1.69001,-6.35059 -3.74654,-14.00888 l -3.73913,-13.92416 -7.50962,7.50836 -7.50961,7.50836 -2.71164,10.15079 c -1.49141,5.58293 -2.72437,10.20145 -2.73992,10.26337 -0.0281,0.11173 -0.0262,0.11203 0.2477,0.0393 0.15179,-0.0403 6.45002,-1.7336 13.99608,-3.76287 z M 47.085287,155.26548 c -1.866075,-6.94008 -3.404491,-12.62932 -3.418702,-12.64274 -0.01421,-0.0134 -0.90251,3.25799 -1.973997,7.26982 l -1.948158,7.29423 5.356603,5.35932 c 2.946132,2.94763 5.361219,5.35446 5.366861,5.34851 0.0056,-0.006 -1.516532,-5.68906 -3.382607,-12.62914 z M 222.9307,149.74219 c -1.0843,-4.03417 -1.9752,-7.33869 -1.97978,-7.34337 -0.005,-0.005 -1.47201,5.47173 -3.26095,12.1698 -1.78894,6.69807 -3.31784,12.4224 -3.39758,12.72074 l -0.14497,0.54243 5.37736,-5.37736 5.37737,-5.37737 z M 38.23992,142.69155 c 1.484189,-5.55651 2.698544,-10.14925 2.698568,-10.2061 4.1e-5,-0.10346 -5.47653,-20.52755 -5.526973,-20.61205 -0.01472,-0.0246 -4.639698,4.56807 -10.277732,10.20605 l -10.250972,10.25088 10.295195,10.29529 c 6.454759,6.45482 10.307914,10.27167 10.329292,10.23198 0.01875,-0.0348 1.248433,-4.60954 2.732622,-10.16605 z m 201.19124,-20.68216 c -6.41193,-6.412 -10.28202,-10.24567 -10.30309,-10.20614 -0.0503,0.0944 -5.47247,20.42002 -5.47247,20.5142 0,0.0445 1.23248,4.66634 2.73885,10.27075 1.50637,5.6044 2.73885,10.20508 2.73885,10.22374 0,0.0187 4.62763,-4.59365 10.28361,-10.24958 l 10.28361,-10.28351 z M 47.052334,109.69615 c 1.834847,-6.87814 3.36888,-12.620723 3.408964,-12.761304 0.07052,-0.247334 -0.103229,-0.0795 -5.369697,5.186794 l -5.442577,5.44239 0.114868,0.4201 c 0.06318,0.23106 0.960407,3.56784 1.993841,7.41507 1.261485,4.69621 1.892043,6.96337 1.918745,6.89881 0.02187,-0.0529 1.54101,-5.72373 3.375856,-12.60186 z m 175.901966,5.01261 1.93535,-7.2347 -5.40782,-5.411 c -2.97429,-2.976051 -5.41227,-5.406135 -5.41773,-5.400187 -0.005,0.0059 1.53407,5.754647 3.42117,12.774887 1.8871,7.02025 3.43328,12.77571 3.43594,12.78992 0.009,0.0462 0.0739,-0.19509 2.03309,-7.51892 z M 53.223883,86.557112 c 0.124003,-0.343441 5.455771,-20.428195 5.426052,-20.43992 -0.04672,-0.01844 -28.014139,7.48516 -28.068316,7.530667 -0.02017,0.01694 1.659963,6.343757 3.733622,14.059597 2.073659,7.715844 3.770289,14.030154 3.770289,14.031804 0,0.0285 15.122204,-15.137422 15.138353,-15.182148 z m 176.970987,1.045911 c 2.0598,-7.710641 3.73449,-14.02995 3.72153,-14.042911 -0.0344,-0.03434 -28.04559,-7.513846 -28.06546,-7.493977 -0.009,0.0092 1.22297,4.629542 2.7382,10.267384 l 2.75497,10.250625 7.5359,7.536037 c 4.14475,4.144822 7.54352,7.528419 7.55284,7.519109 0.009,-0.009 1.70221,-6.325632 3.76202,-14.036267 z M 79.198252,60.590423 c -0.01484,-0.01483 -14.663514,3.906676 -14.689295,3.932385 -0.005,0.005 -0.872236,3.241203 -1.927226,7.191613 -1.054985,3.950415 -1.940006,7.263557 -1.966707,7.362538 -0.03959,0.146756 1.672208,-1.540774 9.27607,-9.144548 5.128545,-5.128488 9.316764,-9.332376 9.307158,-9.341988 z M 201.99597,71.842067 c -1.08047,-4.021119 -1.98013,-7.325506 -1.99925,-7.343087 -0.0191,-0.01758 -3.27875,-0.896488 -7.24363,-1.953136 -3.96487,-1.056649 -7.25537,-1.93396 -7.31221,-1.949577 -0.0568,-0.01562 4.08145,4.158651 9.19622,9.276148 5.11477,5.117501 9.30493,9.299195 9.31147,9.292663 0.007,-0.0065 -0.87214,-3.301892 -1.9526,-7.323011 z M 76.429444,55.926697 86.63554,53.184926 94.113585,45.708468 c 4.112919,-4.112052 7.466325,-7.488177 7.451995,-7.502501 -0.0443,-0.04432 -27.993259,-7.499556 -28.018916,-7.4739 -0.01711,0.0171 -6.500994,24.225981 -7.423222,27.716073 -0.06631,0.250941 -0.06517,0.271224 0.01383,0.246869 0.04734,-0.01459 4.67882,-1.260332 10.292173,-2.768312 z M 198.43655,58.62691 c -5.2e-4,-0.02132 -1.69559,-6.340699 -3.7668,-14.043071 -3.11654,-11.589635 -3.78049,-14.003027 -3.85067,-13.99685 -0.0985,0.0087 -27.8974,7.470226 -27.9328,7.497501 -0.013,0.01003 3.37628,3.418232 7.53179,7.573777 l 7.55548,7.555536 10.16738,2.721167 c 5.59206,1.496638 10.19645,2.723307 10.23198,2.725932 0.0355,0.0026 0.0642,-0.01268 0.0636,-0.03399 z M 109.50236,47.039365 c 6.77865,-1.819823 12.36783,-3.326868 12.42039,-3.348989 0.0644,-0.02708 -2.28982,-0.677452 -7.20704,-1.991038 l -7.30261,-1.950818 -5.37347,5.373473 c -5.192936,5.192934 -5.364886,5.370999 -5.117786,5.299808 0.14063,-0.04052 5.801856,-1.562612 12.580516,-3.382436 z m 52.94247,-1.962399 -5.42599,-5.423824 -7.43915,1.999986 c -4.09154,1.099993 -7.40508,2.006551 -7.36342,2.014573 0.0417,0.008 5.80773,1.547313 12.8135,3.420647 7.00577,1.873334 12.76101,3.407497 12.78941,3.409252 0.0284,0.0018 -2.39005,-2.43753 -5.37435,-5.420634 z m -20.24171,-6.825284 c 5.5054,-1.478932 10.13588,-2.724849 10.28996,-2.768706 l 0.28016,-0.07974 -10.25366,-10.253755 -10.25365,-10.253755 -10.29662,10.296518 c -5.66314,5.663084 -10.26753,10.306897 -10.23198,10.319584 0.23823,0.08503 20.24264,5.420392 20.33721,5.424129 0.0653,0.0026 4.62318,-1.205343 10.12858,-2.684275 z" id="path1208"/>
  <path style="fill:#000000;stroke-width:0.0516764" id="path1150" d=""/>
<script xmlns=""/></svg>